<svg width="369" height="177" viewBox="0 0 369 177" fill="none" xmlns="http://www.w3.org/2000/svg">
<path d="M84.1164 99.1759C84.1164 122.324 74.4339 145.471 41.9573 145.471C9.48074 145.471 0 122.324 0 99.1759V95.1849H18.1546V99.1759C18.1546 116.337 20.9787 129.507 41.9573 129.507C62.936 129.507 65.9618 116.337 65.9618 99.1759V0H84.1164V99.1759ZM117.011 21.1522C112.573 21.1522 106.925 17.7599 106.925 11.5739C106.925 5.38784 112.573 1.99549 117.011 1.99549C121.65 1.99549 127.096 5.38784 127.096 11.5739C127.096 17.7599 121.65 21.1522 117.011 21.1522ZM108.942 40.9076H125.079V142.678H108.942V40.9076ZM212.214 66.8489C212.214 58.867 207.776 52.0823 191.235 52.0823C171.668 52.0823 165.213 57.6697 164.205 72.4363H148.067C149.076 52.8805 161.381 38.1139 191.235 38.1139C210.801 38.1139 228.351 45.6967 228.351 70.2413V119.729C228.351 127.711 229.763 132.101 240.051 130.904V142.079C235.815 143.476 233.596 143.675 230.57 143.675C220.887 143.675 215.038 141.081 212.214 129.906H211.81C205.355 139.485 193.857 145.471 176.913 145.471C156.136 145.471 143.024 133.698 143.024 116.537C143.024 93.389 160.372 87.4025 186.999 82.4138C204.347 79.221 212.214 77.0259 212.214 66.8489ZM178.527 131.503C197.69 131.503 212.214 122.922 212.214 103.366V86.4047C209.188 89.398 199.304 92.1917 188.411 94.3867C168.441 98.5772 159.162 103.566 159.162 115.738C159.162 125.716 165.213 131.503 178.527 131.503ZM337.279 40.9076L293.304 151.059C288.866 162.034 283.622 177 264.66 177C258.205 177 253.566 175.803 250.943 175.005V163.032H253.364C262.24 163.83 268.493 163.231 273.939 157.444C278.175 152.855 282.411 144.274 278.377 134.297L239.445 40.9076H257.6L289.068 123.92H289.471L319.124 40.9076H337.279ZM358.914 21.1522C354.476 21.1522 348.828 17.7599 348.828 11.5739C348.828 5.38784 354.476 1.99549 358.914 1.99549C363.554 1.99549 369 5.38784 369 11.5739C369 17.7599 363.554 21.1522 358.914 21.1522ZM350.845 40.9076H366.983V142.678H350.845V40.9076Z" fill="#1C1D20"/>
</svg>
